HIERARCHY
ROOT Hips
{
	OFFSET 0.000000 0.000000 0.000000
	CHANNELS 6 Xposition Yposition Zposition Zrotation Yrotation Xrotation 
	JOINT LHipJoint
	{
		OFFSET 0.000000 0.000000 0.000000
		CHANNELS 3 Zrotation Yrotation Xrotation
		JOINT LeftUpLeg
		{
			OFFSET 8.178360 -10.767780 5.035740
			CHANNELS 3 Zrotation Yrotation Xrotation
			JOINT LeftLeg
			{
				OFFSET 14.688660 -40.356780 0.000000
				CHANNELS 3 Zrotation Yrotation Xrotation
				JOINT LeftFoot
				{
					OFFSET 15.373200 -42.237540 0.000000
					CHANNELS 3 Zrotation Yrotation Xrotation
					JOINT LeftToeBase
					{
						OFFSET 0.945840 -2.598660 13.935300
						CHANNELS 3 Zrotation Yrotation Xrotation
						End Site
						{
							OFFSET 0.000000 0.000000 0.000000
						}
					}
				}
			}
		}
	}
	JOINT RHipJoint
	{
		OFFSET 0.000000 0.000000 0.000000
		CHANNELS 3 Zrotation Yrotation Xrotation
		JOINT RightUpLeg
		{
			OFFSET -7.833120 -10.767780 5.035740
			CHANNELS 3 Zrotation Yrotation Xrotation
			JOINT RightLeg
			{
				OFFSET -15.255180 -41.913300 0.000000
				CHANNELS 3 Zrotation Yrotation Xrotation
				JOINT RightFoot
				{
					OFFSET -15.409560 -42.337380 0.000000
					CHANNELS 3 Zrotation Yrotation Xrotation
					JOINT RightToeBase
					{
						OFFSET -0.988380 -2.715540 14.178900
						CHANNELS 3 Zrotation Yrotation Xrotation
						End Site
						{
							OFFSET 0.000000 0.000000 0.000000
						}
					}
				}
			}
		}
	}
	JOINT LowerBack
	{
		OFFSET 0.000000 0.000000 0.000000
		CHANNELS 3 Zrotation Yrotation Xrotation
		JOINT Spine
		{
			OFFSET 0.169620 12.213540 -1.160280
			CHANNELS 3 Zrotation Yrotation Xrotation
			JOINT Spine1
			{
				OFFSET 0.340320 12.293100 -0.256500
				CHANNELS 3 Zrotation Yrotation Xrotation
				JOINT Neck
				{
					OFFSET 0.000000 0.000000 0.000000
					CHANNELS 3 Zrotation Yrotation Xrotation
					JOINT Neck1
					{
						OFFSET -0.325020 10.477440 1.032120
						CHANNELS 3 Zrotation Yrotation Xrotation
						JOINT Head
						{
							OFFSET 0.624420 10.568160 -0.743820
							CHANNELS 3 Zrotation Yrotation Xrotation
							End Site
							{
								OFFSET 0.000000 0.000000 0.000000
							}
						}
					}
				}
				JOINT LeftShoulder
				{
					OFFSET 0.000000 0.000000 0.000000
					CHANNELS 3 Zrotation Yrotation Xrotation
					JOINT LeftArm
					{
						OFFSET 20.174460 7.205340 -1.867260
						CHANNELS 3 Zrotation Yrotation Xrotation
						JOINT LeftForeArm
						{
							OFFSET 29.898000 -0.000000 -0.000000
							CHANNELS 3 Zrotation Yrotation Xrotation
							JOINT LeftHand
							{
								OFFSET 20.901360 -0.000000 -0.000000
								CHANNELS 3 Zrotation Yrotation Xrotation
								JOINT LeftFingerBase
								{
									OFFSET 0.000000 0.000000 0.000000
									CHANNELS 3 Zrotation Yrotation Xrotation
									JOINT LeftHandIndex1
									{
										OFFSET 4.291560 -0.000000 -0.000000
										CHANNELS 3 Zrotation Yrotation Xrotation
										End Site
										{
											OFFSET 0.000000 0.000000 0.000000
										}
									}
								}
								JOINT LThumb
								{
									OFFSET 0.000000 0.000000 0.000000
									CHANNELS 3 Zrotation Yrotation Xrotation
									End Site
									{
										OFFSET 0.000000 0.000000 0.000000
									}
								}
							}
						}
					}
				}
				JOINT RightShoulder
				{
					OFFSET 0.000000 0.000000 0.000000
					CHANNELS 3 Zrotation Yrotation Xrotation
					JOINT RightArm
					{
						OFFSET -18.819600 8.244300 -2.427900
						CHANNELS 3 Zrotation Yrotation Xrotation
						JOINT RightForeArm
						{
							OFFSET -31.451400 -0.000000 -0.000000
							CHANNELS 3 Zrotation Yrotation Xrotation
							JOINT RightHand
							{
								OFFSET -20.665020 -0.000000 -0.000000
								CHANNELS 3 Zrotation Yrotation Xrotation
								JOINT RightFingerBase
								{
									OFFSET 0.000000 0.000000 0.000000
									CHANNELS 3 Zrotation Yrotation Xrotation
									JOINT RightHandIndex1
									{
										OFFSET -3.735180 -0.000000 -0.000000
										CHANNELS 3 Zrotation Yrotation Xrotation
										End Site
										{
											OFFSET 0.000000 0.000000 0.000000
										}
									}
								}
								JOINT RThumb
								{
									OFFSET 0.000000 0.000000 0.000000
									CHANNELS 3 Zrotation Yrotation Xrotation
									End Site
									{
										OFFSET 0.000000 0.000000 0.000000
									}
								}
							}
						}
					}
				}
			}
		}
	}
}
MOTION
Frames:	7
Frame Time:	0.0333333
-9.494046 106.500546 -51.828060 -14.094365 -62.945492 14.131342 -3.737281 0.034022 0.546547 -10.892620 -8.937959 -24.892948 -1.144413 5.759645 15.669361 -2.451539 13.934946 3.012407 0.005500 -0.480000 -1.318900 0.930296 -1.349362 2.020076 27.501971 -7.230431 4.615860 -0.054604 -4.302717 14.191422 1.034002 -6.534355 -6.809801 -0.106900 2.108200 -5.804800 6.017776 4.133962 9.408416 1.774412 6.249508 0.908401 -3.648331 3.075357 -4.391258 -10.181734 -5.026485 -18.184326 6.338169 -5.535176 20.816404 4.052900 -3.009600 15.108300 -6.456598 -0.627497 -1.788994 -83.907299 6.340326 19.868402 14.498004 -20.658814 -3.140762 -1.315291 -2.283079 8.934201 17.279245 21.833244 7.717500 -7.125000 0.000000 0.000000 -11.913700 54.988800 -2.953500 5.216726 1.534475 -1.021739 80.242614 6.031359 22.849100 -18.860910 27.478393 -4.976092 0.450540 -0.123149 2.825905 -17.274683 8.699193 -2.795000 7.125000 0.000000 0.000000 6.597800 -20.793100 3.851100 
-12.109710 106.376538 -50.168970 -13.244207 -63.321157 13.166530 -3.779999 0.142144 0.741113 -11.789561 -7.528325 -23.982581 -1.051856 5.961062 16.272475 -2.369833 13.875355 4.425292 0.003200 0.362900 0.997200 0.861438 -1.406723 1.990011 26.714141 -6.571865 6.501749 -0.185133 -4.729713 15.371889 1.184603 -7.189037 -6.755141 -0.304600 3.548500 -9.809600 5.420347 4.624889 9.148930 1.530947 6.811170 1.011973 -3.883715 3.375966 -4.078758 -9.927269 -5.076927 -18.366775 6.402166 -5.680138 20.729891 4.010000 -3.019700 15.109200 -6.544075 -0.617761 -1.749317 -83.664702 6.019776 18.445128 13.666437 -19.442573 -2.745871 -1.315385 -2.339750 10.753859 15.869842 22.970318 7.379400 -7.125000 0.000000 0.000000 -14.051700 55.903800 -3.812800 5.226004 1.520754 -1.029072 81.076425 5.810568 21.516921 -19.151754 27.847409 -5.120764 0.460467 -0.120727 2.828850 -17.617688 8.744412 -2.867600 7.125000 0.000000 0.000000 6.343700 -20.730200 3.710000 
-14.930652 106.710642 -48.170952 -10.855294 -63.360312 11.206582 -3.846739 0.225638 0.946498 -14.056570 -5.293017 -23.576967 -0.982766 6.065491 16.553727 -2.289673 14.577231 7.338109 0.018200 0.872000 2.396600 0.819337 -1.436928 1.961574 25.286942 -5.838077 7.222285 -0.478389 -5.572297 17.735583 1.375491 -7.884840 -5.633146 -0.450400 4.305800 -11.938500 4.410134 4.913240 8.288348 1.089021 7.041106 0.870053 -4.165164 3.518749 -3.911976 -9.743104 -5.072332 -18.075088 6.669670 -5.833513 20.804946 4.083700 -3.035400 15.094900 -6.614629 -0.556425 -1.735677 -83.282475 6.348705 16.673610 13.075737 -18.609823 -2.482424 -1.380563 -2.266030 12.397301 15.744246 22.740886 7.253400 -7.125000 0.000000 0.000000 -14.037900 55.618600 -3.711100 5.196235 1.498612 -1.051449 82.222379 4.725300 20.899627 -19.296642 28.029738 -5.195336 0.473770 -0.104985 2.267816 -17.900698 8.528485 -2.842800 7.125000 0.000000 0.000000 6.133100 -20.951800 3.554600 
-17.679960 107.160330 -45.981498 -7.909375 -62.103638 8.469339 -3.979755 0.359379 1.269513 -16.436721 -4.005368 -21.988689 -1.088605 5.682466 15.783502 -1.642265 11.732103 8.526449 0.138900 2.401700 6.617100 0.774938 -1.424004 1.866310 23.500917 -6.188757 6.024844 -1.283205 -7.391106 23.121583 1.096024 -6.482734 -3.114969 -0.271500 3.351400 -9.258700 3.592848 4.661201 7.801950 0.709475 6.606812 0.755299 -4.391157 3.319636 -3.899956 -9.804307 -4.948885 -18.233340 6.848569 -5.728648 21.506739 4.230400 -2.995100 15.493800 -6.687206 -0.516909 -1.734518 -83.176140 6.621017 14.249878 12.685794 -18.061816 -2.302542 -1.648096 -2.094512 13.913410 18.263094 22.079401 8.289600 -7.125000 0.000000 0.000000 -10.839400 55.412900 -2.794500 5.178675 1.478169 -1.076374 83.322705 3.738089 19.561170 -18.895772 27.538131 -4.993655 0.456000 -0.140295 3.821870 -17.630427 8.988390 -2.951900 7.125000 0.000000 0.000000 6.333900 -20.462900 3.742500 
-20.331744 107.573898 -43.781208 -6.712238 -60.167696 6.992943 -4.071646 0.552662 1.648361 -17.740013 -3.066776 -19.616736 -1.182586 5.268048 14.938522 -1.283324 9.612926 8.229865 0.096100 1.998700 5.502100 0.673369 -1.412560 1.676256 22.436436 -6.941546 3.572074 -2.614266 -9.721896 30.361717 1.221015 -7.255899 1.750416 -0.334200 3.715000 -10.276200 3.587345 4.213652 7.414702 0.615348 6.004279 0.857439 -4.487688 3.028783 -3.531533 -9.732025 -4.815693 -18.271017 6.418861 -5.494745 21.509171 4.057300 -2.944200 15.430700 -6.734720 -0.539756 -1.700594 -83.141193 6.474725 13.918283 12.367573 -17.576628 -2.168312 -1.627914 -2.157430 12.913194 18.024192 22.357731 8.281300 -7.125000 0.000000 0.000000 -11.222300 55.681600 -2.968600 5.191680 1.405963 -1.107549 84.005702 2.572487 18.830132 -18.693545 27.292413 -4.893641 0.455583 -0.144073 3.812691 -17.550314 9.108778 -2.977700 7.125000 0.000000 0.000000 6.390700 -20.338200 3.794500 
-22.850484 107.911620 -41.524332 -5.594313 -57.661445 5.551485 -4.135210 0.761567 2.072478 -19.046162 -1.605884 -17.057078 -1.331443 4.528143 13.240588 -0.723238 6.492427 8.938960 0.045400 1.375000 3.781300 0.537238 -1.393855 1.422190 21.082612 -7.667021 -0.441886 -4.557347 -12.248102 38.978104 0.846902 -7.720277 10.774121 -0.003400 -0.376900 1.035500 3.109494 3.749214 6.988969 0.832197 5.327375 1.066737 -3.715024 2.688784 -3.062382 -10.021679 -4.875545 -18.686057 6.012922 -5.339334 21.548648 3.929700 -2.953500 15.507300 -6.768622 -0.589464 -1.658544 -83.850259 5.699670 13.146471 12.159562 -17.192375 -2.072818 -1.730881 -2.032947 14.358997 18.658791 21.692696 8.368300 -7.125000 0.000000 0.000000 -10.163800 55.077300 -2.534400 5.227354 1.355939 -1.144368 83.753460 0.954914 18.353705 -18.905175 27.561613 -5.000557 0.455556 -0.103617 3.395217 -17.338256 8.355507 -2.689800 7.125000 0.000000 0.000000 6.552600 -21.172700 3.767900 
-25.207290 107.989878 -39.430602 -2.443513 -55.475387 2.569357 -4.135555 0.908831 2.479119 -21.883047 1.384150 -15.122770 -1.402111 3.747933 11.556731 -0.017345 1.500443 9.067966 0.066100 1.658500 4.562900 0.411121 -1.338671 1.225492 18.474082 -7.069888 -4.909130 -6.683812 -14.407623 47.505072 -0.198864 -5.789545 18.229851 -0.144800 -2.452300 6.757300 1.157125 3.340731 7.117600 0.774296 4.593360 0.973492 -2.659282 2.318205 -3.526800 -10.317254 -4.796002 -18.516807 5.921553 -5.093791 21.530867 3.964900 -2.900300 15.450000 -6.720782 -0.599246 -1.684770 -84.058298 5.997233 15.920924 12.642520 -17.920184 -2.286729 -1.674378 -2.078390 12.545130 18.976224 21.434499 8.430300 -7.125000 0.000000 0.000000 -9.712200 54.875300 -2.372300 5.200098 1.340093 -1.186171 83.470284 -1.211596 18.624145 -19.181105 27.900705 -5.144284 0.444672 -0.089149 2.942802 -16.966178 8.264719 -2.596900 7.125000 0.000000 0.000000 6.831600 -21.297400 3.911100 
